<svg id="visual" viewBox="0 0 960 540" width="960" height="540" xmlns="http://www.w3.org/2000/svg" xmlns:xlink="http://www.w3.org/1999/xlink" version="1.1"><rect x="0" y="0" width="960" height="540" fill="#c9c9e9"></rect><path d="M0 308L80 332L160 309L240 319L320 346L400 307L480 318L560 308L640 329L720 343L800 328L880 330L960 341L960 541L880 541L800 541L720 541L640 541L560 541L480 541L400 541L320 541L240 541L160 541L80 541L0 541Z" fill="#6600ff"></path><path d="M0 334L80 359L160 349L240 335L320 365L400 353L480 335L560 358L640 338L720 344L800 343L880 349L960 371L960 541L880 541L800 541L720 541L640 541L560 541L480 541L400 541L320 541L240 541L160 541L80 541L0 541Z" fill="#661ffe"></path><path d="M0 394L80 374L160 362L240 378L320 390L400 361L480 385L560 391L640 372L720 359L800 371L880 366L960 385L960 541L880 541L800 541L720 541L640 541L560 541L480 541L400 541L320 541L240 541L160 541L80 541L0 541Z" fill="#672ffd"></path><path d="M0 395L80 415L160 413L240 415L320 416L400 393L480 402L560 395L640 394L720 398L800 414L880 407L960 396L960 541L880 541L800 541L720 541L640 541L560 541L480 541L400 541L320 541L240 541L160 541L80 541L0 541Z" fill="#683bfb"></path><path d="M0 429L80 428L160 441L240 419L320 415L400 438L480 439L560 440L640 424L720 439L800 439L880 418L960 424L960 541L880 541L800 541L720 541L640 541L560 541L480 541L400 541L320 541L240 541L160 541L80 541L0 541Z" fill="#6a45f9"></path><path d="M0 451L80 456L160 457L240 458L320 459L400 446L480 457L560 457L640 454L720 461L800 452L880 447L960 453L960 541L880 541L800 541L720 541L640 541L560 541L480 541L400 541L320 541L240 541L160 541L80 541L0 541Z" fill="#6c4ef7"></path><path d="M0 469L80 477L160 480L240 479L320 478L400 469L480 471L560 471L640 470L720 480L800 471L880 483L960 486L960 541L880 541L800 541L720 541L640 541L560 541L480 541L400 541L320 541L240 541L160 541L80 541L0 541Z" fill="#6e56f5"></path><path d="M0 501L80 503L160 501L240 497L320 509L400 508L480 500L560 499L640 507L720 502L800 505L880 508L960 497L960 541L880 541L800 541L720 541L640 541L560 541L480 541L400 541L320 541L240 541L160 541L80 541L0 541Z" fill="#715df2"></path></svg>