<svg id="visual" viewBox="0 0 2560 1440" width="2560" height="1440" xmlns="http://www.w3.org/2000/svg" xmlns:xlink="http://www.w3.org/1999/xlink" version="1.1"><rect width="2560" height="1440" fill="#001829"></rect><g><g transform="translate(1242 978)"><path d="M0 -56.8L49.2 28.4L-49.2 28.4Z" stroke="#297EA6" fill="none" stroke-width="2"></path></g><g transform="translate(2022 1346)"><path d="M0 -10L8.7 5L-8.7 5Z" stroke="#297EA6" fill="none" stroke-width="2"></path></g><g transform="translate(336 93)"><path d="M0 -19L16.5 9.5L-16.5 9.5Z" stroke="#297EA6" fill="none" stroke-width="2"></path></g><g transform="translate(579 641)"><path d="M0 -42L36.4 21L-36.4 21Z" stroke="#297EA6" fill="none" stroke-width="2"></path></g><g transform="translate(506 94)"><path d="M0 -36L31.2 18L-31.2 18Z" stroke="#297EA6" fill="none" stroke-width="2"></path></g><g transform="translate(1050 468)"><path d="M0 -22L19.1 11L-19.1 11Z" stroke="#297EA6" fill="none" stroke-width="2"></path></g><g transform="translate(1372 186)"><path d="M0 -13L11.3 6.5L-11.3 6.5Z" stroke="#297EA6" fill="none" stroke-width="2"></path></g><g transform="translate(1190 293)"><path d="M0 -8L6.9 4L-6.9 4Z" stroke="#297EA6" fill="none" stroke-width="2"></path></g><g transform="translate(1902 583)"><path d="M0 -43L37.2 21.5L-37.2 21.5Z" stroke="#297EA6" fill="none" stroke-width="2"></path></g><g transform="translate(1088 188)"><path d="M0 -43L37.2 21.5L-37.2 21.5Z" stroke="#297EA6" fill="none" stroke-width="2"></path></g><g transform="translate(2266 500)"><path d="M0 -38L32.9 19L-32.9 19Z" stroke="#297EA6" fill="none" stroke-width="2"></path></g><g transform="translate(2320 316)"><path d="M0 -24L20.8 12L-20.8 12Z" stroke="#297EA6" fill="none" stroke-width="2"></path></g><g transform="translate(896 547)"><path d="M0 -27L23.4 13.5L-23.4 13.5Z" stroke="#297EA6" fill="none" stroke-width="2"></path></g><g transform="translate(1870 137)"><path d="M0 -7L6.1 3.5L-6.1 3.5Z" stroke="#297EA6" fill="none" stroke-width="2"></path></g><g transform="translate(552 1339)"><path d="M0 -42L36.4 21L-36.4 21Z" stroke="#297EA6" fill="none" stroke-width="2"></path></g><g transform="translate(1799 986)"><path d="M0 -21L18.2 10.5L-18.2 10.5Z" stroke="#297EA6" fill="none" stroke-width="2"></path></g><g transform="translate(265 317)"><path d="M0 -7L6.1 3.5L-6.1 3.5Z" stroke="#297EA6" fill="none" stroke-width="2"></path></g><g transform="translate(1322 815)"><path d="M0 -31L26.8 15.5L-26.8 15.5Z" stroke="#297EA6" fill="none" stroke-width="2"></path></g><g transform="translate(1759 343)"><path d="M0 -32L27.7 16L-27.7 16Z" stroke="#297EA6" fill="none" stroke-width="2"></path></g><g transform="translate(1629 869)"><path d="M0 -29L25.1 14.5L-25.1 14.5Z" stroke="#297EA6" fill="none" stroke-width="2"></path></g><g transform="translate(1003 652)"><path d="M0 -10L8.7 5L-8.7 5Z" stroke="#297EA6" fill="none" stroke-width="2"></path></g><g transform="translate(2393 173)"><path d="M0 -54L46.8 27L-46.8 27Z" stroke="#297EA6" fill="none" stroke-width="2"></path></g><g transform="translate(429 1317)"><path d="M0 -21L18.2 10.5L-18.2 10.5Z" stroke="#297EA6" fill="none" stroke-width="2"></path></g><g transform="translate(1064 1136)"><path d="M0 -20L17.3 10L-17.3 10Z" stroke="#297EA6" fill="none" stroke-width="2"></path></g><g transform="translate(1875 727)"><path d="M0 -53L45.9 26.5L-45.9 26.5Z" stroke="#297EA6" fill="none" stroke-width="2"></path></g><g transform="translate(2042 181)"><path d="M0 -22L19.1 11L-19.1 11Z" stroke="#297EA6" fill="none" stroke-width="2"></path></g><g transform="translate(614 498)"><path d="M0 -51L44.2 25.5L-44.2 25.5Z" stroke="#297EA6" fill="none" stroke-width="2"></path></g><g transform="translate(578 1079)"><path d="M0 -19L16.5 9.5L-16.5 9.5Z" stroke="#297EA6" fill="none" stroke-width="2"></path></g><g transform="translate(2407 830)"><path d="M0 -13L11.3 6.5L-11.3 6.5Z" stroke="#297EA6" fill="none" stroke-width="2"></path></g><g transform="translate(1752 601)"><path d="M0 -35L30.3 17.5L-30.3 17.5Z" stroke="#297EA6" fill="none" stroke-width="2"></path></g><g transform="translate(650 280)"><path d="M0 -22L19.1 11L-19.1 11Z" stroke="#297EA6" fill="none" stroke-width="2"></path></g><g transform="translate(1303 655)"><path d="M0 -39L33.8 19.5L-33.8 19.5Z" stroke="#297EA6" fill="none" stroke-width="2"></path></g><g transform="translate(780 1271)"><path d="M0 -8L6.9 4L-6.9 4Z" stroke="#297EA6" fill="none" stroke-width="2"></path></g><g transform="translate(1509 827)"><path d="M0 -39L33.8 19.5L-33.8 19.5Z" stroke="#297EA6" fill="none" stroke-width="2"></path></g><g transform="translate(717 404)"><path d="M0 -21L18.2 10.5L-18.2 10.5Z" stroke="#297EA6" fill="none" stroke-width="2"></path></g><g transform="translate(2231 1320)"><path d="M0 -17L14.7 8.5L-14.7 8.5Z" stroke="#297EA6" fill="none" stroke-width="2"></path></g><g transform="translate(462 388)"><path d="M0 -12L10.4 6L-10.4 6Z" stroke="#297EA6" fill="none" stroke-width="2"></path></g><g transform="translate(1982 405)"><path d="M0 -39L33.8 19.5L-33.8 19.5Z" stroke="#297EA6" fill="none" stroke-width="2"></path></g><g transform="translate(1586 380)"><path d="M0 -29L25.1 14.5L-25.1 14.5Z" stroke="#297EA6" fill="none" stroke-width="2"></path></g><g transform="translate(1976 1197)"><path d="M0 -11L9.5 5.5L-9.5 5.5Z" stroke="#297EA6" fill="none" stroke-width="2"></path></g><g transform="translate(863 126)"><path d="M0 -11L9.5 5.5L-9.5 5.5Z" stroke="#297EA6" fill="none" stroke-width="2"></path></g><g transform="translate(668 1149)"><path d="M0 -18L15.6 9L-15.6 9Z" stroke="#297EA6" fill="none" stroke-width="2"></path></g><g transform="translate(243 913)"><path d="M0 -53L45.9 26.5L-45.9 26.5Z" stroke="#297EA6" fill="none" stroke-width="2"></path></g><g transform="translate(1111 71)"><path d="M0 -44L38.1 22L-38.1 22Z" stroke="#297EA6" fill="none" stroke-width="2"></path></g><g transform="translate(2063 564)"><path d="M0 -29L25.1 14.5L-25.1 14.5Z" stroke="#297EA6" fill="none" stroke-width="2"></path></g><g transform="translate(946 786)"><path d="M0 -49L42.4 24.5L-42.4 24.5Z" stroke="#297EA6" fill="none" stroke-width="2"></path></g><g transform="translate(1764 194)"><path d="M0 -37L32 18.5L-32 18.5Z" stroke="#297EA6" fill="none" stroke-width="2"></path></g><g transform="translate(2486 241)"><path d="M0 -40L34.6 20L-34.6 20Z" stroke="#297EA6" fill="none" stroke-width="2"></path></g><g transform="translate(912 1287)"><path d="M0 -50L43.3 25L-43.3 25Z" stroke="#297EA6" fill="none" stroke-width="2"></path></g><g transform="translate(1207 1339)"><path d="M0 -54L46.8 27L-46.8 27Z" stroke="#297EA6" fill="none" stroke-width="2"></path></g><g transform="translate(1741 1383)"><path d="M0 -39L33.8 19.5L-33.8 19.5Z" stroke="#297EA6" fill="none" stroke-width="2"></path></g><g transform="translate(1074 902)"><path d="M0 -21L18.2 10.5L-18.2 10.5Z" stroke="#297EA6" fill="none" stroke-width="2"></path></g><g transform="translate(91 1351)"><path d="M0 -30L26 15L-26 15Z" stroke="#297EA6" fill="none" stroke-width="2"></path></g><g transform="translate(1497 1241)"><path d="M0 -55L47.6 27.5L-47.6 27.5Z" stroke="#297EA6" fill="none" stroke-width="2"></path></g><g transform="translate(1560 216)"><path d="M0 -55L47.6 27.5L-47.6 27.5Z" stroke="#297EA6" fill="none" stroke-width="2"></path></g><g transform="translate(1086 741)"><path d="M0 -48L41.6 24L-41.6 24Z" stroke="#297EA6" fill="none" stroke-width="2"></path></g><g transform="translate(296 703)"><path d="M0 -16L13.9 8L-13.9 8Z" stroke="#297EA6" fill="none" stroke-width="2"></path></g><g transform="translate(2452 465)"><path d="M0 -39L33.8 19.5L-33.8 19.5Z" stroke="#297EA6" fill="none" stroke-width="2"></path></g><g transform="translate(2023 875)"><path d="M0 -7L6.1 3.5L-6.1 3.5Z" stroke="#297EA6" fill="none" stroke-width="2"></path></g><g transform="translate(1729 1200)"><path d="M0 -54L46.8 27L-46.8 27Z" stroke="#297EA6" fill="none" stroke-width="2"></path></g><g transform="translate(748 882)"><path d="M0 -55L47.6 27.5L-47.6 27.5Z" stroke="#297EA6" fill="none" stroke-width="2"></path></g><g transform="translate(975 966)"><path d="M0 -42L36.4 21L-36.4 21Z" stroke="#297EA6" fill="none" stroke-width="2"></path></g><g transform="translate(2360 1370)"><path d="M0 -9L7.8 4.5L-7.8 4.5Z" stroke="#297EA6" fill="none" stroke-width="2"></path></g></g></svg>